<?xml version="1.0" standalone="no"?>
<!DOCTYPE svg PUBLIC "-//W3C//DTD SVG 20010904//EN"
 "http://www.w3.org/TR/2001/REC-SVG-20010904/DTD/svg10.dtd">
<svg version="1.0" xmlns="http://www.w3.org/2000/svg"
 width="410.000000pt" height="410.000000pt" viewBox="0 0 410.000000 410.000000"
 preserveAspectRatio="xMidYMid meet">
<metadata>
Created by potrace 1.11, written by Peter Selinger 2001-2013
</metadata>
<g transform="translate(0.000000,410.000000) scale(0.100000,-0.100000)"
fill="#000000" stroke="none">
<path d="M2965 3454 c84 -56 145 -128 175 -209 l11 -30 -38 37 c-43 40 -134
100 -142 93 -2 -3 21 -28 52 -56 32 -28 65 -65 74 -82 l16 -32 -39 34 c-69 61
-195 109 -329 127 -58 7 -57 6 39 -61 72 -51 112 -85 98 -85 -48 0 -234 44
-273 64 -55 30 -60 23 -24 -31 49 -73 60 -88 109 -140 71 -76 31 -70 -46 7
-47 46 -67 60 -90 60 -59 0 -87 -33 -133 -162 -25 -69 -27 -105 -9 -152 5 -12
-1 -15 -51 -18 -28 -2 -34 -17 -7 -19 9 -1 21 -1 25 0 5 1 6 -3 2 -9 -3 -6
-11 -8 -16 -5 -5 4 -9 1 -9 -4 0 -6 6 -11 13 -12 29 -1 61 -10 72 -19 7 -5 15
-6 20 -2 4 4 3 -3 -3 -14 -25 -48 -190 -184 -249 -206 -46 -17 -41 -25 15 -23
l47 2 -40 -18 c-22 -10 -47 -19 -55 -19 -12 0 -12 -2 -2 -8 7 -5 33 -8 57 -7
25 0 45 -1 45 -4 -1 -4 -30 -37 -66 -76 -84 -91 -202 -265 -179 -265 2 0 34
23 71 50 36 28 68 50 69 48 2 -2 -3 -32 -12 -68 -12 -51 -14 -100 -9 -224 4
-88 8 -162 11 -164 5 -6 -52 -80 -106 -140 -23 -25 -70 -64 -103 -87 -56 -38
-65 -50 -112 -143 -59 -118 -73 -136 -136 -168 -62 -31 -128 -45 -212 -45 -56
0 -71 4 -82 19 -7 11 -43 32 -80 46 -63 26 -69 26 -109 12 -29 -9 -46 -11 -53
-4 -6 6 -28 12 -49 15 -31 3 -46 -1 -80 -26 -22 -16 -49 -44 -59 -60 -10 -17
-26 -33 -35 -36 -41 -13 -237 -7 -319 10 -14 3 -38 8 -55 11 -29 5 -138 40
-202 66 -26 10 -36 22 -49 60 -15 46 -95 148 -116 148 -6 0 -5 -6 2 -15 7 -9
11 -18 8 -20 -8 -8 -129 118 -164 170 -38 56 -43 44 -15 -44 15 -48 16 -61 6
-61 -8 0 -17 5 -20 10 -3 5 -10 10 -15 10 -13 0 -1 -29 26 -67 29 -38 30 -45
7 -36 -16 6 -17 5 -3 -13 52 -68 152 -133 220 -141 19 -3 76 -23 125 -45 88
-40 282 -112 327 -123 13 -3 52 -11 88 -18 36 -8 68 -14 73 -15 4 -1 25 -2 47
-2 34 0 42 -4 56 -32 9 -18 26 -41 37 -51 19 -16 90 -35 112 -28 5 1 31 -8 57
-20 37 -17 53 -20 70 -12 18 8 32 6 62 -9 38 -20 39 -20 80 0 22 11 50 23 61
27 30 11 101 18 93 10 -18 -18 63 -128 87 -119 7 3 34 -2 60 -10 26 -9 68 -16
93 -15 26 1 66 -4 90 -10 24 -7 66 -14 94 -15 54 -4 77 10 119 71 21 30 74 50
129 49 39 -1 45 -4 42 -21 -17 -107 0 -125 168 -173 8 -2 44 -5 80 -7 36 -1
92 -10 125 -20 85 -24 158 -17 186 18 20 26 72 60 80 53 2 -2 31 -7 64 -10 50
-6 151 -21 265 -41 47 -9 67 -13 107 -25 54 -16 101 -7 153 31 44 32 49 34
142 44 144 15 298 80 342 144 63 91 126 266 126 350 0 45 -46 177 -111 317
-39 85 -40 96 -24 164 3 14 11 63 17 110 11 82 12 84 24 55 7 -16 13 -38 14
-47 0 -10 4 -18 9 -18 22 0 -3 231 -30 281 -17 33 8 22 52 -22 22 -22 43 -39
45 -36 9 8 -24 141 -49 204 -14 34 -46 94 -72 134 -43 67 -45 71 -19 54 16
-10 40 -29 54 -42 39 -36 44 -27 10 22 -39 57 -166 213 -197 243 -29 27 -27
27 37 2 53 -21 72 -25 55 -12 -5 4 -32 31 -59 59 l-49 52 23 56 c25 62 24 93
-12 200 -39 119 -102 148 -177 80 -21 -19 -40 -35 -42 -35 -3 0 -5 25 -6 54
-1 50 -6 61 -59 132 -56 74 -170 194 -185 194 -4 0 -15 7 -23 16 -13 13 -16
13 -16 1 0 -8 7 -20 16 -28 24 -20 54 -85 54 -119 0 -31 -13 -40 -27 -17 -17
27 -119 110 -176 143 -64 38 -191 84 -229 84 -19 0 -17 -4 17 -26z m-187 -847
c-21 -67 23 -159 75 -159 15 0 27 -4 27 -8 0 -16 -32 -33 -62 -33 -25 0 -40 9
-71 43 -35 41 -38 48 -35 95 3 43 8 54 37 78 19 15 35 26 37 24 2 -2 -2 -20
-8 -40z m681 -114 c-11 -68 -17 -80 -54 -103 -44 -27 -86 -26 -120 6 -28 26
-29 43 0 26 30 -16 65 -1 93 41 22 33 27 51 26 94 l-2 54 33 -35 c30 -33 32
-38 24 -83z"/>
</g>
</svg>
